<svg width="1440" height="959" viewBox="0 0 1440 959" fill="none" xmlns="http://www.w3.org/2000/svg">
<g clip-path="url(#clip0_96_131)" filter="url(#filter0_f_96_131)">
<path d="M2000 25H0V1525H2000V25Z" fill="#E1F5FE"/>
<path d="M-0.000244141 3025C1656.85 3025 3000 1681.85 3000 25C3000 -1631.85 1656.85 -2975 -0.000244141 -2975C-1656.85 -2975 -3000 -1631.85 -3000 25C-3000 1681.85 -1656.85 3025 -0.000244141 3025Z" fill="url(#paint0_radial_96_131)"/>
<g opacity="0.5">
<path d="M-0.000244141 2025C1104.57 2025 2000 1129.57 2000 25C2000 -1079.57 1104.57 -1975 -0.000244141 -1975C-1104.57 -1975 -2000 -1079.57 -2000 25C-2000 1129.57 -1104.57 2025 -0.000244141 2025Z" fill="url(#paint1_radial_96_131)"/>
<path d="M-0.000244141 1825C994.112 1825 1800 1019.11 1800 25C1800 -969.113 994.112 -1775 -0.000244141 -1775C-994.113 -1775 -1800 -969.113 -1800 25C-1800 1019.11 -994.113 1825 -0.000244141 1825Z" fill="url(#paint2_radial_96_131)"/>
<path d="M-0.000244141 1725C938.884 1725 1700 963.884 1700 25C1700 -913.884 938.884 -1675 -0.000244141 -1675C-938.884 -1675 -1700 -913.884 -1700 25C-1700 963.884 -938.884 1725 -0.000244141 1725Z" fill="url(#paint3_radial_96_131)"/>
<path d="M-0.000244141 1676C911.822 1676 1651 936.822 1651 25C1651 -886.822 911.822 -1626 -0.000244141 -1626C-911.822 -1626 -1651 -886.822 -1651 25C-1651 936.822 -911.822 1676 -0.000244141 1676Z" fill="url(#paint4_radial_96_131)"/>
<path d="M-0.000244141 1475C800.813 1475 1450 825.813 1450 25C1450 -775.813 800.813 -1425 -0.000244141 -1425C-800.813 -1425 -1450 -775.813 -1450 25C-1450 825.813 -800.813 1475 -0.000244141 1475Z" fill="url(#paint5_radial_96_131)"/>
<path d="M-0.000244141 1275C690.356 1275 1250 715.356 1250 25C1250 -665.356 690.356 -1225 -0.000244141 -1225C-690.356 -1225 -1250 -665.356 -1250 25C-1250 715.356 -690.356 1275 -0.000244141 1275Z" fill="url(#paint6_radial_96_131)"/>
<path d="M-0.000244141 1200C648.934 1200 1175 673.935 1175 25C1175 -623.935 648.934 -1150 -0.000244141 -1150C-648.935 -1150 -1175 -623.935 -1175 25C-1175 673.935 -648.935 1200 -0.000244141 1200Z" fill="url(#paint7_radial_96_131)"/>
<path d="M-0.000244141 925C497.056 925 900 522.056 900 25C900 -472.056 497.056 -875 -0.000244141 -875C-497.057 -875 -900 -472.056 -900 25C-900 522.056 -497.057 925 -0.000244141 925Z" fill="url(#paint8_radial_96_131)"/>
<path d="M-0.000244141 775C414.213 775 750 439.214 750 25C750 -389.214 414.213 -725 -0.000244141 -725C-414.214 -725 -750 -389.214 -750 25C-750 439.214 -414.214 775 -0.000244141 775Z" fill="url(#paint9_radial_96_131)"/>
<path d="M-0.000244141 525C276.142 525 500 301.142 500 25C500 -251.142 276.142 -475 -0.000244141 -475C-276.143 -475 -500 -251.142 -500 25C-500 301.142 -276.143 525 -0.000244141 525Z" fill="url(#paint10_radial_96_131)"/>
<path d="M-0.000244141 405C209.868 405 380 234.868 380 25C380 -184.868 209.868 -355 -0.000244141 -355C-209.868 -355 -380 -184.868 -380 25C-380 234.868 -209.868 405 -0.000244141 405Z" fill="url(#paint11_radial_96_131)"/>
<path d="M-0.000244141 275C138.071 275 250 163.071 250 25C250 -113.071 138.071 -225 -0.000244141 -225C-138.071 -225 -250 -113.071 -250 25C-250 163.071 -138.071 275 -0.000244141 275Z" fill="url(#paint12_radial_96_131)"/>
</g>
<path d="M57.7642 201.81C46.3677 205.269 34.6531 207.643 22.8429 208.876C11.0285 210.099 -0.870306 210.177 -12.6485 209.113C-24.4266 208.05 -36.0728 205.84 -47.38 202.561C-58.6913 199.271 -69.6523 194.909 -80.0825 189.549C-90.5127 184.189 -100.408 177.843 -109.594 170.638C-118.784 163.423 -127.254 155.344 -134.852 146.54C-142.449 137.735 -149.186 128.209 -154.927 118.154C-160.676 108.077 -165.426 97.4823 -169.145 86.5637C-164.964 97.314 -159.773 107.646 -153.642 117.367C-147.523 127.093 -140.468 136.197 -132.625 144.516C-124.779 152.847 -116.145 160.393 -106.899 167.027C-97.6483 173.672 -87.7696 179.411 -77.4667 184.14C-67.1597 188.881 -56.4132 192.619 -45.4527 195.296C-34.4768 197.98 -23.2757 199.598 -12.0401 200.119C-0.804425 200.639 10.4473 200.081 21.5254 198.45C32.6036 196.819 43.4928 194.107 54.0208 190.403C57.1454 189.304 60.4645 191.02 61.5635 194.145C62.6624 197.269 61.1368 200.621 58.001 201.724C57.9221 201.753 57.8544 201.778 57.7714 201.795L57.7642 201.81Z" fill="url(#paint13_linear_96_131)"/>
<path d="M287.625 140.669C279.831 158.924 270.312 176.424 259.234 192.824C248.138 209.218 235.491 224.494 221.515 238.392C207.538 252.29 192.24 264.791 175.941 275.715C159.623 286.633 142.311 295.954 124.293 303.528C106.276 311.103 87.5726 316.938 68.5329 320.947C49.4745 324.951 30.0868 327.11 10.7064 327.377C-8.67391 327.645 -28.0537 326.04 -47.0416 322.598C-66.0671 319.143 -84.682 313.857 -102.606 306.908C-84.4016 313.087 -65.6497 317.528 -46.6701 320.116C-27.6973 322.722 -8.51547 323.467 10.508 322.367C29.5502 321.274 48.4341 318.336 66.8093 313.637C85.2033 308.945 103.114 302.481 120.19 294.394C137.285 286.313 153.57 276.597 168.73 265.471C183.915 254.333 197.981 241.766 210.683 227.979C223.384 214.192 234.726 199.228 244.511 183.337C254.297 167.445 262.5 150.637 269.05 133.227C270.994 128.061 276.741 125.662 281.908 127.606C287.074 129.55 289.719 135.089 287.768 140.274C287.72 140.406 287.679 140.519 287.613 140.643L287.625 140.669Z" fill="url(#paint14_linear_96_131)"/>
<path d="M239.07 329.981C219.223 344.872 197.981 357.866 175.739 368.697C153.481 379.508 130.243 388.14 106.427 394.45C82.6109 400.76 58.2364 404.732 33.7644 406.37C9.27627 407.99 -15.2902 407.26 -39.5285 404.199C-63.7668 401.138 -87.6609 395.765 -110.778 388.206C-133.911 380.628 -156.249 370.848 -177.396 359.025C-198.543 347.202 -218.519 333.352 -236.923 317.759C-255.359 302.127 -272.207 284.771 -287.267 266.045C-271.422 284.112 -253.898 300.64 -234.969 315.303C-216.059 329.983 -195.76 342.778 -174.479 353.477C-153.182 364.195 -130.903 372.817 -108.075 379.215C-85.2305 385.632 -61.8014 389.829 -38.2616 391.746C-14.7057 393.683 8.99611 393.343 32.3606 390.774C55.7604 388.207 78.8421 383.395 101.209 376.408C123.576 369.421 145.206 360.311 165.731 349.224C186.256 338.137 205.641 325.069 223.613 310.316C228.947 305.938 236.667 306.933 241.045 312.267C245.423 317.601 244.825 325.25 239.472 329.643C239.338 329.756 239.223 329.852 239.073 329.946L239.07 329.981Z" fill="url(#paint15_linear_96_131)"/>
<path d="M460.387 -40.4599C463.954 -10.9003 464.713 18.9718 462.624 48.5846C460.504 78.2025 455.532 107.532 447.8 136.068C440.067 164.604 429.57 192.318 416.59 218.733C403.58 245.154 388.082 270.246 370.358 293.599C352.634 316.951 332.713 338.559 310.987 358.047C289.232 377.541 265.666 394.887 240.691 409.77C215.716 424.653 189.337 437.103 162.09 446.873C134.783 456.653 106.638 463.748 78.1415 468.164C106.424 462.537 134.115 454.242 160.71 443.369C187.311 432.525 212.789 419.107 236.676 403.411C260.593 387.709 282.92 369.729 303.266 349.844C323.641 329.953 342.06 308.123 358.177 284.81C374.323 261.492 388.191 236.657 399.539 210.834C410.912 184.976 419.76 158.102 425.919 130.665C432.078 103.229 435.589 75.2846 436.382 47.3018C437.175 19.319 435.226 -8.66764 430.676 -36.1959C429.327 -44.3657 434.993 -51.7925 443.163 -53.1417C451.333 -54.4908 458.923 -49.2797 460.278 -41.0803C460.314 -40.8735 460.345 -40.6963 460.352 -40.4842L460.387 -40.4599Z" fill="url(#paint16_linear_96_131)"/>
<path d="M589.368 -167.548C600.896 -129.56 608.808 -90.511 612.921 -51.1434C616.996 -11.7621 617.257 27.9005 613.711 67.161C610.165 106.421 602.798 145.242 591.87 182.933C580.905 220.637 566.364 257.174 548.498 291.941C530.631 326.709 509.477 359.693 485.461 390.313C461.408 420.948 434.48 449.18 405.132 474.505C375.784 499.83 344.029 522.285 310.513 541.422C276.922 560.587 241.607 576.42 205.212 588.815C241.046 574.879 275.486 557.576 307.89 537.141C340.309 516.743 370.656 493.226 398.387 467.084C426.156 440.929 451.311 412.151 473.422 381.329C495.572 350.494 514.703 317.565 530.468 283.222C546.27 248.865 558.73 213.043 567.652 176.508C576.599 139.922 581.994 102.585 583.729 65.133C585.465 27.6809 583.605 -9.82487 578.167 -46.752C572.729 -83.6792 563.69 -119.976 551.342 -155.07C547.679 -165.485 553.4 -176.549 563.815 -180.212C574.231 -183.875 585.404 -178.79 589.081 -168.337C589.176 -168.074 589.258 -167.849 589.317 -167.572L589.368 -167.548Z" fill="url(#paint17_linear_96_131)"/>
<path d="M657.923 434.643C630.81 476.205 599.776 515.157 565.384 550.726C530.948 586.27 493.179 618.389 452.736 646.538C412.293 674.688 369.2 698.826 324.329 718.645C279.414 738.44 232.745 753.873 185.098 764.7C137.451 775.527 88.8695 781.773 40.2527 783.38C-8.40748 784.962 -57.0778 781.861 -104.909 774.107C-152.74 766.353 -199.756 753.988 -245.011 737.271C-290.352 720.504 -333.888 699.41 -375 674.519C-332.863 697.635 -288.623 716.71 -243.018 731.32C-197.438 745.973 -150.536 756.136 -103.222 761.686C-55.8654 767.262 -8.09725 768.225 39.1826 764.633C86.5058 761.067 133.409 752.928 178.961 740.43C224.556 727.957 268.869 711.105 311.022 690.294C353.244 669.464 393.331 644.63 430.588 616.2C467.845 587.769 502.264 555.853 533.255 520.976C564.245 486.098 591.739 448.278 615.422 408.258C622.452 396.382 637.643 392.97 649.519 400C661.395 407.03 665.503 421.815 658.448 433.734C658.273 434.037 658.123 434.297 657.905 434.575L657.923 434.643Z" fill="url(#paint18_linear_96_131)"/>
<path d="M288.822 909.052C231.839 926.344 173.266 938.213 114.215 944.381C55.143 950.494 -4.3509 950.886 -63.2417 945.567C-122.132 940.248 -180.364 929.198 -236.899 912.805C-293.456 896.357 -348.261 874.546 -400.412 847.747C-452.563 820.947 -502.04 789.215 -547.97 753.192C-593.922 717.112 -636.27 676.721 -674.258 632.698C-712.245 588.676 -745.928 541.043 -774.634 490.77C-803.38 440.383 -827.13 387.411 -845.723 332.818C-824.819 386.57 -798.865 438.229 -768.212 486.836C-737.615 535.464 -702.339 580.984 -663.127 622.581C-623.894 664.235 -580.726 701.966 -534.494 735.134C-488.241 768.358 -438.847 797.055 -387.333 820.702C-335.798 844.406 -282.065 863.095 -227.263 876.479C-172.383 889.898 -116.378 897.991 -60.1997 900.594C-4.02155 903.197 52.2371 900.407 107.628 892.251C163.019 884.094 217.464 870.535 270.105 852.014C285.727 846.519 302.323 855.1 307.818 870.723C313.313 886.346 305.685 903.106 290.006 908.621C289.611 908.765 289.273 908.888 288.857 908.975L288.822 909.052Z" fill="url(#paint19_linear_96_131)"/>
<path d="M1006.69 429.842C979.408 493.736 946.091 554.984 907.32 612.386C868.484 669.763 824.218 723.228 775.302 771.87C726.385 820.513 672.84 864.269 615.793 902.503C558.68 940.714 498.088 973.338 435.027 999.849C371.967 1026.36 306.504 1046.78 239.866 1060.82C173.161 1074.83 105.304 1082.38 37.4727 1083.32C-30.3584 1084.26 -98.1877 1078.64 -164.645 1066.59C-231.235 1054.5 -296.387 1036 -359.121 1011.68C-295.405 1033.3 -229.774 1048.85 -163.345 1057.9C-96.9403 1067.03 -29.8039 1069.64 36.7781 1065.79C103.426 1061.96 169.52 1051.68 233.833 1035.23C298.212 1018.81 360.9 996.185 420.666 967.879C480.497 939.596 537.495 905.59 590.554 866.649C643.702 827.666 692.935 783.682 737.39 735.426C781.845 687.171 821.541 634.799 855.79 579.178C890.039 523.558 918.751 464.73 941.674 403.796C948.479 385.713 968.594 377.316 986.677 384.121C1004.76 390.926 1014.02 410.312 1007.19 428.461C1007.02 428.921 1006.88 429.316 1006.64 429.752L1006.69 429.842Z" fill="url(#paint20_linear_96_131)"/>
<path d="M1141.82 -584.477C1179.29 -510.561 1209.71 -433.153 1232.43 -353.713C1255.09 -274.23 1270 -192.787 1276.94 -110.79C1283.88 -28.7939 1282.81 53.6837 1274.01 135.129C1265.13 216.616 1248.48 296.998 1224.36 374.949C1200.23 452.9 1168.7 528.377 1130.43 600.031C1092.08 671.727 1046.96 739.529 995.807 802.23C944.653 864.931 887.511 922.605 825.547 974.096C763.437 1025.67 696.578 1071.02 626.25 1109.7C694.866 1068.06 759.394 1020 818.604 966.245C877.855 912.56 931.717 853.213 979.251 789.419C1026.86 725.584 1068.14 657.303 1102.42 585.926C1136.78 514.506 1164.17 439.876 1184.13 363.559C1204.16 287.201 1216.79 209.043 1221.89 130.7C1227.02 52.2439 1224.58 -26.4688 1214.57 -104.091C1204.56 -181.714 1187.14 -258.144 1162.58 -332.087C1138.01 -406.03 1106.27 -477.373 1068.17 -545.041C1056.86 -565.125 1064.61 -589.944 1084.7 -601.25C1104.78 -612.556 1129.59 -606.152 1140.94 -585.996C1141.23 -585.49 1141.48 -585.056 1141.7 -584.508L1141.82 -584.477Z" fill="url(#paint21_linear_96_131)"/>
<path d="M860.651 1122.93C789.203 1176.54 712.731 1223.32 632.661 1262.31C552.533 1301.23 468.875 1332.3 383.137 1355.02C297.4 1377.74 209.651 1392.03 121.552 1397.93C33.3949 1403.76 -55.0444 1401.14 -142.302 1390.12C-229.56 1379.1 -315.579 1359.75 -398.801 1332.54C-482.081 1305.26 -562.495 1270.05 -638.625 1227.49C-714.755 1184.93 -786.668 1135.07 -852.922 1078.93C-919.292 1022.66 -979.944 960.175 -1034.16 892.763C-977.118 957.804 -914.033 1017.3 -845.889 1070.09C-777.813 1122.94 -704.737 1169 -628.126 1207.52C-551.456 1246.1 -471.252 1277.14 -389.07 1300.17C-306.83 1323.27 -222.485 1338.38 -137.741 1345.29C-52.9402 1352.26 32.3863 1351.04 116.499 1341.79C200.738 1332.55 283.832 1315.22 364.352 1290.07C444.873 1264.92 522.741 1232.12 596.631 1192.21C670.522 1152.29 740.31 1105.25 805.006 1052.14C824.208 1036.38 852.003 1039.96 867.763 1059.16C883.523 1078.36 881.37 1105.9 862.098 1121.72C861.616 1122.12 861.202 1122.47 860.662 1122.8L860.651 1122.93Z" fill="url(#paint22_linear_96_131)"/>
<path d="M1301.41 1002.4C1237.08 1084.38 1165.03 1160.19 1086.57 1228.3C1008.02 1296.36 923.129 1356.64 833.369 1408.13C743.609 1459.61 649.042 1502.22 551.544 1535.47C453.959 1568.66 353.502 1592.41 251.842 1606.34C150.183 1620.27 47.406 1624.44 -54.5951 1618.91C-156.682 1613.31 -257.933 1597.91 -356.577 1572.94C-455.22 1547.96 -551.316 1513.49 -642.929 1470.23C-734.715 1426.86 -821.931 1374.76 -903.383 1315.16C-819.462 1371.24 -730.404 1419.24 -637.672 1458.15C-545 1497.15 -448.74 1526.99 -350.775 1547.26C-252.725 1567.59 -152.97 1578.35 -53.4024 1579.49C46.2508 1580.69 145.863 1572.25 243.445 1554.44C341.114 1536.69 436.901 1509.55 528.895 1473.73C621.035 1437.88 709.443 1393.26 792.588 1340.6C875.733 1287.95 953.581 1227.48 1024.8 1160.19C1096.01 1092.89 1160.45 1018.81 1217.32 939.418C1234.2 915.859 1266.61 911.503 1290.16 928.383C1313.72 945.263 1319.61 976.945 1302.67 1000.59C1302.25 1001.19 1301.89 1001.71 1301.38 1002.25L1301.41 1002.4Z" fill="url(#paint23_linear_96_131)"/>
<path d="M1748.92 658.364C1706.01 769.461 1652.59 876.388 1589.6 977.05C1526.5 1077.68 1453.86 1171.92 1372.96 1258.19C1292.07 1344.45 1202.95 1422.62 1107.5 1491.53C1011.94 1560.41 910.081 1619.93 803.63 1669.12C697.178 1718.32 586.247 1757.22 472.918 1785.25C359.475 1813.25 243.672 1830.25 127.517 1835.92C11.3615 1841.58 -105.182 1836.01 -219.761 1819.35C-334.568 1802.62 -447.297 1774.82 -556.231 1736.9C-445.776 1770.14 -332.404 1792.85 -218.053 1804.39C-103.74 1816.04 11.4368 1816.5 125.278 1805.92C239.233 1795.38 351.851 1773.8 461.052 1741.78C570.366 1709.79 676.413 1667.28 777.112 1615.21C877.925 1563.18 973.543 1501.51 1062.11 1431.62C1150.84 1361.65 1232.55 1283.35 1305.83 1198.02C1379.11 1112.68 1443.98 1020.58 1499.33 923.242C1554.68 825.901 1600.35 723.397 1635.98 617.63C1646.55 586.242 1680.51 570.653 1711.9 581.231C1743.29 591.808 1760.31 624.466 1749.7 655.968C1749.44 656.766 1749.21 657.451 1748.84 658.213L1748.92 658.364Z" fill="url(#paint24_linear_96_131)"/>
<path d="M1380.1 -1512.73C1476.67 -1422.31 1564.57 -1322.8 1642.03 -1216.03C1719.41 -1109.17 1786.26 -995.134 1841.44 -875.918C1896.62 -756.703 1940.05 -632.39 1971.31 -505.405C2002.49 -378.318 2021.4 -248.644 2027.77 -118.534C2034.14 11.5754 2028.05 142.018 2009.76 270.405C1991.39 398.895 1960.71 525.243 1918.21 647.233C1875.71 769.224 1821.48 886.941 1756.64 998.018C1691.63 1109.3 1616.09 1213.84 1531.71 1310.25C1611.9 1210.32 1682.47 1103 1741.94 990.032C1801.51 877.145 1849.9 758.708 1886.38 637.056C1922.94 515.301 1947.59 390.332 1960.05 264.536C1972.59 138.638 1972.94 11.7262 1961.21 -113.657C1949.57 -239.142 1925.84 -363.285 1890.71 -483.593C1855.57 -604.089 1808.93 -720.835 1751.53 -831.814C1694.14 -942.793 1626.27 -1047.94 1549.05 -1145.45C1471.83 -1242.96 1385.26 -1332.65 1291.15 -1413.36C1263.22 -1437.32 1261.3 -1478.78 1285.25 -1506.71C1309.21 -1534.63 1349.93 -1538.57 1377.96 -1514.53C1378.67 -1513.93 1379.28 -1513.42 1379.91 -1512.72L1380.1 -1512.73Z" fill="url(#paint25_linear_96_131)"/>
<path d="M2136.46 -672.986C2178.25 -535.278 2206.93 -393.727 2221.84 -251.02C2236.61 -108.263 2237.56 35.5145 2224.7 177.834C2211.85 320.153 2185.14 460.878 2145.53 597.507C2105.78 734.185 2053.07 866.63 1988.3 992.662C1923.54 1118.69 1846.85 1238.26 1759.8 1349.26C1672.61 1460.31 1574.99 1562.65 1468.6 1654.46C1362.22 1746.26 1247.1 1827.66 1125.61 1897.03C1003.84 1966.5 875.827 2023.9 743.894 2068.83C873.794 2018.31 998.636 1955.59 1116.1 1881.51C1233.62 1807.57 1343.63 1722.32 1444.15 1627.56C1544.82 1532.74 1636 1428.42 1716.16 1316.69C1796.45 1204.92 1865.8 1085.55 1922.95 961.054C1980.23 836.511 2025.4 706.658 2057.74 574.218C2090.17 441.593 2109.73 306.246 2116.02 170.483C2122.31 34.7185 2115.57 -101.24 2095.86 -235.101C2076.14 -368.962 2043.38 -500.539 1998.62 -627.753C1985.34 -665.508 2006.08 -705.615 2043.83 -718.894C2081.59 -732.173 2122.09 -713.739 2135.42 -675.847C2135.76 -674.893 2136.06 -674.076 2136.27 -673.072L2136.46 -672.986Z" fill="url(#paint26_linear_96_131)"/>
<path d="M2301 950.353C2238.65 1096.4 2162.49 1236.39 2073.87 1367.6C1985.11 1498.74 1883.93 1620.95 1772.12 1732.13C1660.31 1843.32 1537.92 1943.33 1407.53 2030.72C1276.98 2118.06 1138.49 2192.63 994.348 2253.23C850.211 2313.82 700.582 2360.5 548.264 2392.58C395.796 2424.6 240.695 2441.88 85.652 2444.02C-69.3906 2446.16 -224.429 2433.32 -376.332 2405.79C-528.537 2378.14 -677.456 2335.86 -820.848 2280.26C-675.212 2329.69 -525.197 2365.22 -373.36 2385.92C-221.578 2406.77 -68.1231 2412.74 84.0645 2403.94C236.402 2395.19 387.473 2371.69 534.475 2334.1C681.627 2296.56 824.915 2244.85 961.522 2180.15C1098.28 2115.51 1228.56 2037.78 1349.84 1948.77C1471.32 1859.66 1583.85 1759.13 1685.46 1648.83C1787.07 1538.53 1877.81 1418.83 1956.09 1291.69C2034.37 1164.56 2100 1030.1 2152.4 890.819C2167.95 849.486 2213.93 830.294 2255.26 845.848C2296.59 861.403 2317.76 905.713 2302.15 947.196C2301.76 948.248 2301.44 949.15 2300.9 950.148L2301 950.353Z" fill="url(#paint27_linear_96_131)"/>
<path d="M-207.067 255.718C-221.556 242.15 -234.744 227.22 -246.367 211.201C-257.977 195.167 -268.005 178.058 -276.285 160.172C-284.565 142.285 -291.08 123.633 -295.771 104.581C-300.448 85.5128 -303.286 66.0568 -304.242 46.5355C-305.197 27.0142 -304.283 7.4429 -301.539 -11.82C-298.783 -31.0982 -294.181 -50.0552 -287.804 -68.3583C-281.427 -86.6614 -273.29 -104.324 -263.562 -120.989C-253.807 -137.685 -242.474 -153.37 -229.813 -167.836C-241.846 -152.843 -252.433 -136.741 -261.356 -119.791C-270.294 -102.854 -277.555 -85.0837 -283.028 -66.8313C-288.514 -48.5635 -292.211 -29.8135 -294.08 -10.9394C-295.963 7.95001 -296.014 26.9916 -294.255 45.8037C-292.508 64.6312 -288.948 83.2574 -283.678 101.308C-278.405 119.387 -271.407 136.903 -262.796 153.554C-254.184 170.205 -244.002 185.981 -232.416 200.611C-220.829 215.242 -207.841 228.699 -193.721 240.808C-189.531 244.402 -189.242 250.623 -192.836 254.813C-196.43 259.003 -202.54 259.595 -206.745 255.988C-206.852 255.898 -206.944 255.82 -207.039 255.715L-207.067 255.718Z" fill="url(#paint28_linear_96_131)"/>
<path d="M-368.355 145.342C-375.56 121.6 -380.505 97.1943 -383.076 72.5896C-385.623 47.9763 -385.786 23.1871 -383.57 -1.35066C-381.353 -25.8885 -376.749 -50.1514 -369.919 -73.7081C-363.065 -97.2733 -353.978 -120.109 -342.811 -141.838C-331.645 -163.568 -318.423 -184.183 -303.413 -203.321C-288.38 -222.467 -271.55 -240.113 -253.208 -255.941C-234.865 -271.769 -215.018 -285.803 -194.071 -297.764C-173.076 -309.742 -151.005 -319.638 -128.258 -327.385C-150.654 -318.674 -172.179 -307.86 -192.432 -295.088C-212.693 -282.339 -231.66 -267.641 -248.992 -251.303C-266.348 -234.956 -282.069 -216.969 -295.889 -197.706C-309.733 -178.434 -321.69 -157.853 -331.543 -136.389C-341.419 -114.916 -349.206 -92.5272 -354.783 -69.6928C-360.374 -46.8264 -363.746 -23.4908 -364.831 -0.0831978C-365.916 23.3244 -364.753 46.7655 -361.354 69.845C-357.956 92.9244 -352.306 115.61 -344.589 137.544C-342.3 144.053 -345.875 150.968 -352.385 153.258C-358.894 155.547 -365.877 152.369 -368.175 145.836C-368.235 145.671 -368.287 145.53 -368.323 145.357L-368.355 145.342Z" fill="url(#paint29_linear_96_131)"/>
<path d="M-95.9496 480.011C-124.947 473.253 -153.277 463.749 -180.389 451.658C-207.496 439.536 -233.355 424.833 -257.526 407.807C-281.697 390.781 -304.149 371.438 -324.532 350.206C-344.909 328.945 -363.188 305.799 -379.07 281.157C-394.952 256.514 -408.443 230.405 -419.326 203.324C-430.204 176.213 -438.443 148.136 -443.887 119.577C-449.33 91.0175 -452.007 61.9714 -451.869 33.0257C-451.72 4.02092 -448.761 -24.8539 -443.164 -53.1417C-447.549 -24.6403 -449.226 4.21695 -448.104 32.9279C-447.013 61.6336 -443.118 90.1634 -436.538 117.979C-429.963 145.823 -420.703 172.953 -408.976 198.873C-397.254 224.823 -383.04 249.598 -366.646 272.716C-350.256 295.864 -331.662 317.39 -311.277 336.885C-290.869 356.416 -268.641 373.922 -244.966 389.093C-221.291 404.265 -196.232 417.122 -170.208 427.437C-144.184 437.753 -117.219 445.493 -89.7947 450.634C-81.6561 452.16 -76.6153 460.025 -78.1417 468.163C-79.6682 476.302 -87.161 481.652 -95.3292 480.12C-95.536 480.084 -95.7132 480.053 -95.9148 479.987L-95.9496 480.011Z" fill="url(#paint30_linear_96_131)"/>
<path d="M-20.64 644.68C-60.28 642.52 -99.68 636.6 -138.08 627C-176.48 617.36 -213.84 604.04 -249.52 587.28C-285.2 570.52 -319.16 550.32 -350.84 527.16C-382.52 503.96 -411.88 477.8 -438.44 449.12C-465 420.44 -488.76 389.28 -509.32 356.24C-529.88 323.16 -547.2 288.2 -560.96 251.96C-574.72 215.72 -584.96 178.2 -591.48 140.16C-598 102.04 -600.8 63.44 -600 25C-599.16 63.44 -594.68 101.72 -586.56 139.16C-578.48 176.6 -566.76 213.16 -551.68 248.16C-536.6 283.2 -518.16 316.68 -496.76 348C-475.36 379.36 -450.96 408.6 -424.08 435.16C-397.2 461.76 -367.8 485.72 -336.52 506.6C-305.2 527.52 -271.96 545.36 -237.36 559.8C-202.76 574.24 -166.88 585.32 -130.32 592.84C-93.76 600.36 -56.56 604.28 -19.36 604.68C-8.32001 604.8 0.119987 613.96 -1.25215e-05 625C-0.120013 636.04 -8.72001 644.8 -19.8 644.68C-20.08 644.68 -20.32 644.68 -20.6 644.64L-20.64 644.68Z" fill="url(#paint31_linear_96_131)"/>
<path d="M-609.962 503.139C-639.744 463.446 -665.732 420.962 -687.394 376.478C-709.017 331.963 -726.28 285.486 -738.9 237.854C-751.52 190.222 -759.463 141.473 -762.741 92.529C-765.98 43.5528 -764.52 -5.5802 -758.398 -54.0568C-752.276 -102.533 -741.529 -150.322 -726.411 -196.556C-711.255 -242.823 -691.695 -287.497 -668.05 -329.792C-644.404 -372.086 -616.704 -412.038 -585.517 -448.846C-554.254 -485.718 -519.542 -519.413 -482.091 -549.533C-518.224 -517.843 -551.28 -482.796 -580.606 -444.938C-609.965 -407.119 -635.557 -366.521 -656.954 -323.959C-678.391 -281.365 -695.633 -236.807 -708.429 -191.15C-721.264 -145.461 -729.658 -98.6026 -733.493 -51.5229C-737.366 -4.41116 -736.687 42.9924 -731.547 89.7215C-726.414 136.521 -716.789 182.684 -702.816 227.418C-688.842 272.152 -670.623 315.412 -648.448 356.462C-626.274 397.512 -600.138 436.283 -570.631 472.226C-561.876 482.893 -563.866 498.335 -574.533 507.091C-585.201 515.846 -600.499 514.65 -609.287 503.944C-609.512 503.676 -609.705 503.446 -609.892 503.145L-609.962 503.139Z" fill="url(#paint32_linear_96_131)"/>
<path d="M-724.734 832.512C-775.445 785.026 -821.604 732.769 -862.284 676.705C-902.918 620.586 -938.019 560.704 -966.998 498.1C-995.976 435.497 -1018.78 370.216 -1035.2 303.532C-1051.57 236.795 -1061.5 168.699 -1064.85 100.374C-1068.19 32.0497 -1064.99 -36.4498 -1055.39 -103.87C-1045.74 -171.344 -1029.63 -237.693 -1007.31 -301.754C-984.994 -365.815 -956.516 -427.632 -922.466 -485.962C-888.326 -544.399 -848.659 -599.295 -804.347 -649.927C-846.461 -597.45 -883.515 -541.094 -914.745 -481.768C-946.029 -422.488 -971.443 -360.293 -990.598 -296.41C-1009.8 -232.472 -1022.74 -166.847 -1029.28 -100.788C-1035.87 -34.675 -1036.05 31.9705 -1029.89 97.8131C-1023.78 163.709 -1011.32 228.901 -992.873 292.078C-974.418 355.354 -949.925 416.661 -919.784 474.94C-889.644 533.219 -854.007 588.433 -813.455 639.64C-772.903 690.846 -727.443 737.947 -678.023 780.328C-663.358 792.908 -662.347 814.682 -674.927 829.347C-687.507 844.012 -708.889 846.081 -723.608 833.457C-723.983 833.142 -724.305 832.872 -724.636 832.503L-724.734 832.512Z" fill="url(#paint33_linear_96_131)"/>
<path d="M182.197 1306.41C99.9223 1316.34 16.7784 1318.45 -65.6437 1312.64C-148.08 1306.74 -229.713 1292.9 -309.139 1271.38C-388.564 1249.85 -465.701 1220.64 -539.224 1184.51C-612.761 1148.3 -682.602 1105.16 -747.599 1055.83C-812.597 1006.5 -872.738 951.053 -926.982 890.582C-981.24 830.03 -1029.52 764.438 -1070.94 694.924C-1112.37 625.41 -1147.02 551.989 -1174.21 476.15C-1201.43 400.147 -1221.18 321.809 -1233.47 242.494C-1217.81 321.214 -1194.72 398.286 -1164.46 472.311C-1134.28 546.351 -1096.93 617.262 -1053.24 683.748C-1009.54 750.316 -959.495 812.46 -904.148 869.09C-848.786 925.802 -788.026 977.068 -723.139 1021.93C-658.237 1066.87 -589.112 1105.47 -517.238 1137.05C-445.267 1168.71 -370.466 1193.33 -294.102 1210.48C-217.737 1227.62 -139.959 1237.39 -62.0735 1239.6C15.812 1241.8 93.7082 1236.38 170.328 1223.72C193.068 1219.96 213.739 1235.73 217.494 1258.47C221.249 1281.21 206.745 1302.34 183.923 1306.11C183.348 1306.21 182.854 1306.3 182.264 1306.31L182.197 1306.41Z" fill="url(#paint34_linear_96_131)"/>
<path d="M-1326.08 458.233C-1352.02 372.759 -1369.82 284.9 -1379.07 196.323C-1388.24 107.715 -1388.83 18.4738 -1380.85 -69.8623C-1372.87 -158.198 -1356.3 -245.545 -1331.71 -330.349C-1307.04 -415.184 -1274.32 -497.391 -1234.12 -575.618C-1193.92 -653.844 -1146.32 -728.059 -1092.29 -796.955C-1038.17 -865.882 -977.581 -929.405 -911.548 -986.387C-845.514 -1043.37 -774.065 -1093.89 -698.654 -1136.95C-623.074 -1180.07 -543.617 -1215.7 -461.727 -1243.59C-542.355 -1212.23 -619.843 -1173.3 -692.754 -1127.32C-765.696 -1081.42 -833.976 -1028.51 -896.372 -969.69C-958.853 -910.841 -1015.45 -846.089 -1065.2 -776.741C-1115.04 -707.362 -1158.08 -633.271 -1193.55 -555.999C-1229.11 -478.697 -1257.14 -398.098 -1277.22 -315.894C-1297.35 -233.575 -1309.49 -149.567 -1313.39 -65.2995C-1317.3 18.9679 -1313.11 103.356 -1300.88 186.442C-1288.64 269.528 -1268.3 351.197 -1240.52 430.157C-1232.28 453.591 -1245.15 478.485 -1268.59 486.727C-1292.02 494.969 -1317.16 483.527 -1325.43 460.009C-1325.65 459.417 -1325.83 458.909 -1325.96 458.286L-1326.08 458.233Z" fill="url(#paint35_linear_96_131)"/>
<path d="M-1363.56 913.632C-1418.6 825.143 -1465.19 731.509 -1502.36 634.484C-1539.45 537.399 -1567.06 437.01 -1584.74 335.054C-1602.43 233.097 -1610.12 129.66 -1608.02 26.6691C-1605.83 -76.3824 -1593.79 -178.902 -1572.11 -279.195C-1550.43 -379.488 -1519.2 -477.494 -1479.11 -571.45C-1438.93 -665.466 -1389.84 -755.346 -1332.63 -839.498C-1275.42 -923.65 -1210.16 -1002.16 -1138.18 -1073.45C-1066.03 -1144.87 -987.244 -1209.01 -903.383 -1265.16C-984.775 -1205.48 -1060.34 -1138.21 -1128.62 -1064.38C-1196.96 -990.636 -1257.93 -910.389 -1310.49 -825.265C-1363.13 -740.081 -1407.35 -650.022 -1442.48 -556.849C-1477.69 -463.617 -1503.83 -367.125 -1520.47 -269.336C-1537.19 -171.486 -1544.45 -72.1932 -1542.25 26.505C-1540.08 125.35 -1528.39 223.685 -1507.35 319.826C-1486.3 415.967 -1456.1 509.801 -1417.23 599.738C-1378.35 689.674 -1330.77 775.567 -1275.62 856.159C-1259.26 880.079 -1266.25 912.019 -1290.16 928.383C-1314.08 944.747 -1345.87 939.444 -1362.29 915.438C-1362.72 914.836 -1363.08 914.32 -1363.41 913.658L-1363.56 913.632Z" fill="url(#paint36_linear_96_131)"/>
<path d="M-1193.33 1451.82C-1283.05 1373.5 -1365.26 1286.73 -1438.31 1193.12C-1511.28 1099.4 -1575 998.91 -1628.4 893.388C-1681.79 787.867 -1724.76 677.39 -1756.88 564.126C-1788.92 450.768 -1810.01 334.698 -1819.83 217.841C-1829.65 100.985 -1828.26 -16.5627 -1815.84 -132.644C-1803.35 -248.82 -1779.72 -363.457 -1745.32 -474.544C-1710.91 -585.631 -1665.82 -693.242 -1610.98 -795.212C-1555.98 -897.372 -1491.31 -993.795 -1418.42 -1083.19C-1487.43 -990.766 -1547.54 -891.996 -1597.5 -788.489C-1647.55 -685.056 -1687.37 -576.981 -1716.36 -466.387C-1745.43 -355.699 -1763.68 -242.493 -1770.93 -128.926C-1778.26 -15.2641 -1774.59 98.9266 -1760.1 211.362C-1745.68 323.892 -1720.43 434.836 -1685.05 541.971C-1649.65 649.274 -1604.02 752.842 -1548.89 850.884C-1493.77 948.926 -1429.41 1041.39 -1356.87 1126.69C-1284.33 1212 -1203.63 1289.97 -1116.43 1359.62C-1090.55 1380.3 -1087.52 1417.54 -1108.19 1443.42C-1128.86 1469.3 -1165.38 1474.12 -1191.35 1453.37C-1192.01 1452.86 -1192.58 1452.41 -1193.16 1451.8L-1193.33 1451.82Z" fill="url(#paint37_linear_96_131)"/>
<path d="M972.974 1847.81C854.973 1907.62 731.399 1956.19 604.579 1992.47C477.693 2028.63 347.677 2052.44 216.777 2063.52C85.8769 2074.6 -45.7909 2072.89 -175.811 2058.84C-305.897 2044.67 -434.22 2018.09 -558.661 1979.57C-683.102 1941.06 -803.595 1890.72 -917.984 1829.62C-1032.44 1768.41 -1140.68 1696.38 -1240.78 1614.71C-1340.87 1533.05 -1432.94 1441.83 -1515.14 1342.91C-1597.48 1243.76 -1669.88 1137.02 -1731.62 1024.75C-1665.14 1134.29 -1588.43 1237.3 -1502.61 1331.82C-1416.91 1426.41 -1322.16 1512.4 -1220.32 1588.28C-1118.42 1664.28 -1009.41 1730.18 -895.465 1784.91C-781.451 1839.76 -662.311 1883.49 -540.478 1915.36C-418.58 1947.34 -293.807 1967.5 -168.741 1975.64C-43.4924 1983.83 82.165 1979.93 206.082 1963.95C330 1947.97 452.012 1920.16 570.056 1880.95C688.099 1841.73 801.991 1791.06 910.018 1730.23C942.08 1712.18 981.701 1724.56 999.75 1756.62C1017.8 1788.68 1007.58 1828.29 975.398 1846.41C974.59 1846.87 973.898 1847.27 973.023 1847.62L972.974 1847.81Z" fill="url(#paint38_linear_96_131)"/>
<path d="M-74.8201 2271.34C-218.515 2263.51 -361.34 2242.05 -500.54 2207.25C-639.74 2172.3 -775.17 2124.02 -904.51 2063.26C-1033.85 2002.51 -1156.96 1929.28 -1271.8 1845.33C-1386.64 1761.23 -1493.07 1666.4 -1589.35 1562.43C-1685.63 1458.47 -1771.76 1345.51 -1846.29 1225.74C-1920.82 1105.83 -1983.6 979.1 -2033.48 847.73C-2083.36 716.36 -2120.48 580.35 -2144.12 442.455C-2167.75 304.27 -2177.9 164.345 -2175 24.9999C-2171.96 164.345 -2155.72 303.11 -2126.28 438.83C-2096.99 574.55 -2054.51 707.08 -1999.84 833.955C-1945.18 960.975 -1878.33 1082.34 -1800.76 1195.87C-1723.18 1309.55 -1634.73 1415.55 -1537.29 1511.83C-1439.85 1608.25 -1333.28 1695.11 -1219.89 1770.8C-1106.35 1846.63 -985.855 1911.3 -860.43 1963.65C-735.005 2015.99 -604.94 2056.16 -472.41 2083.42C-339.88 2110.68 -205.03 2124.89 -70.1801 2126.34C-30.1601 2126.77 0.43492 2159.98 -7.97235e-05 2200C-0.43508 2240.02 -31.6101 2271.77 -71.7751 2271.34C-72.7901 2271.34 -73.6601 2271.34 -74.6751 2271.19L-74.8201 2271.34Z" fill="url(#paint39_linear_96_131)"/>
<path d="M-1656.54 1870.74C-1772.45 1762.2 -1877.95 1642.76 -1970.93 1514.61C-2063.81 1386.34 -2144.04 1249.47 -2210.28 1106.37C-2276.52 963.278 -2328.64 814.065 -2366.16 661.645C-2403.59 509.102 -2426.29 353.454 -2433.93 197.284C-2441.58 41.1137 -2434.27 -115.457 -2412.31 -269.56C-2390.26 -423.786 -2353.44 -575.442 -2302.43 -721.867C-2251.41 -868.291 -2186.32 -1009.59 -2108.49 -1142.91C-2030.46 -1276.48 -1939.79 -1401.96 -1838.51 -1517.69C-1934.77 -1397.74 -2019.46 -1268.93 -2090.85 -1133.33C-2162.35 -997.83 -2220.44 -855.669 -2264.22 -709.65C-2308.11 -563.508 -2337.69 -413.508 -2352.64 -262.515C-2367.7 -111.4 -2368.11 40.9327 -2354.04 191.43C-2340.07 342.049 -2311.58 491.059 -2269.42 635.464C-2227.24 780.096 -2171.26 920.225 -2102.36 1053.43C-2033.47 1186.64 -1952.02 1312.85 -1859.33 1429.89C-1766.63 1546.93 -1662.73 1654.59 -1549.77 1751.46C-1516.25 1780.22 -1513.94 1829.99 -1542.69 1863.51C-1571.44 1897.03 -1620.32 1901.76 -1653.96 1872.9C-1654.82 1872.18 -1655.55 1871.56 -1656.31 1870.72L-1656.54 1870.74Z" fill="url(#paint40_linear_96_131)"/>
<path d="M98.3142 -132.902C108.289 -126.394 117.637 -118.946 126.174 -110.692C134.705 -102.428 142.413 -93.363 149.169 -83.6566C155.925 -73.9503 161.718 -63.6081 166.475 -52.839C171.225 -42.0595 174.929 -30.8589 177.528 -19.4236C180.126 -7.98834 181.625 3.67127 182.011 15.3393C182.391 27.0177 181.646 38.6986 179.785 50.178C177.924 61.6575 174.957 72.9415 170.945 83.8025C166.921 94.6844 161.858 105.133 155.884 115C161.432 104.887 166.01 94.2695 169.516 83.3243C173.033 72.3852 175.472 61.1286 176.804 49.7733C178.142 38.4077 178.374 26.9433 177.512 15.5961C176.656 4.23856 174.703 -7.01822 171.703 -17.9507C168.709 -28.8936 164.665 -39.5286 159.67 -49.6454C154.671 -59.7785 148.711 -69.3995 141.888 -78.3411C135.064 -87.2827 127.404 -95.5434 119.034 -102.981C110.663 -110.419 101.586 -117.017 91.9816 -122.701C89.1313 -124.388 88.3126 -128.034 89.9997 -130.885C91.6869 -133.735 95.2352 -134.721 98.0959 -133.028C98.1687 -132.986 98.231 -132.95 98.2978 -132.897L98.3142 -132.902Z" fill="url(#paint41_linear_96_131)"/>
<path d="M-96.2742 -269.684C-77.2801 -275.448 -57.7558 -279.404 -38.072 -281.461C-18.3814 -283.498 1.44994 -283.629 21.0802 -281.856C40.7104 -280.083 60.1208 -276.399 78.9661 -270.935C97.8183 -265.452 116.087 -258.182 133.47 -249.249C150.854 -240.316 167.346 -229.738 182.656 -217.731C197.973 -205.704 212.09 -192.24 224.752 -177.566C237.415 -162.892 248.642 -147.015 258.211 -130.257C267.793 -113.461 275.71 -95.8037 281.907 -77.606C274.939 -95.5233 266.288 -112.743 256.07 -128.945C245.871 -145.155 234.112 -160.328 221.042 -174.194C207.964 -188.078 193.575 -200.655 178.164 -211.711C162.747 -222.786 146.282 -232.352 129.111 -240.234C111.932 -248.135 94.0214 -254.365 75.7539 -258.826C57.4608 -263.299 38.7923 -265.997 20.0662 -266.865C1.34014 -267.732 -17.4127 -266.802 -35.8763 -264.084C-54.3399 -261.365 -72.4885 -256.845 -90.0352 -250.671C-95.2428 -248.84 -100.775 -251.7 -102.606 -256.908C-104.438 -262.115 -101.895 -267.702 -96.6689 -269.54C-96.5373 -269.588 -96.4246 -269.629 -96.2862 -269.658L-96.2742 -269.684Z" fill="url(#paint42_linear_96_131)"/>
<path d="M79.9576 -354.176C104.122 -348.544 127.73 -340.624 150.324 -330.548C172.913 -320.447 194.463 -308.194 214.605 -294.006C234.747 -279.817 253.457 -263.699 270.443 -246.005C287.424 -228.287 302.656 -208.999 315.891 -188.464C329.127 -167.929 340.369 -146.171 349.438 -123.603C358.503 -101.011 365.369 -77.6132 369.905 -53.8139C374.441 -30.0146 376.672 -5.80954 376.557 18.3119C376.433 42.4825 373.967 66.5449 369.303 90.1181C372.957 66.3669 374.355 42.3192 373.42 18.3934C372.51 -5.528 369.264 -29.3028 363.781 -52.4821C358.302 -75.6861 350.586 -98.2945 340.813 -119.895C331.045 -141.519 319.2 -162.165 305.538 -181.43C291.88 -200.72 276.384 -218.658 259.397 -234.905C242.39 -251.18 223.867 -265.768 204.138 -278.411C184.409 -291.054 163.527 -301.768 141.84 -310.365C120.153 -318.961 97.682 -325.411 74.8286 -329.695C68.0464 -330.967 63.8457 -337.521 65.1178 -344.303C66.3898 -351.085 72.6338 -355.543 79.4406 -354.267C79.613 -354.237 79.7607 -354.211 79.9287 -354.156L79.9576 -354.176Z" fill="url(#paint43_linear_96_131)"/>
<path d="M-346.077 -285.6C-325.726 -307.333 -303.33 -327.116 -279.302 -344.55C-255.251 -361.965 -229.588 -377.008 -202.758 -389.427C-175.927 -401.847 -147.95 -411.62 -119.371 -418.656C-90.7694 -425.673 -61.5855 -429.929 -32.3035 -431.363C-3.02156 -432.796 26.3354 -431.425 55.2298 -427.309C84.1471 -423.174 112.583 -416.271 140.037 -406.706C167.492 -397.14 193.985 -384.935 218.983 -370.343C244.028 -355.711 267.555 -338.711 289.254 -319.72C266.764 -337.769 242.611 -353.649 217.186 -367.034C191.78 -380.441 165.125 -391.333 137.747 -399.542C110.345 -407.77 82.22 -413.316 53.9089 -416.12C25.5747 -418.944 -2.98763 -419.022 -31.2058 -416.382C-59.447 -413.763 -87.3863 -408.422 -114.462 -400.517C-141.581 -392.608 -167.855 -382.111 -192.832 -369.193C-217.808 -356.276 -241.471 -341.003 -263.417 -323.624C-285.363 -306.244 -305.549 -286.761 -323.712 -265.581C-329.104 -259.296 -338.435 -258.863 -344.72 -264.254C-351.005 -269.646 -351.892 -278.81 -346.482 -285.118C-346.347 -285.279 -346.231 -285.416 -346.073 -285.558L-346.077 -285.6Z" fill="url(#paint44_linear_96_131)"/>
<path d="M-526.339 -302.715C-504.648 -335.964 -479.821 -367.125 -452.308 -395.581C-424.759 -424.016 -394.544 -449.711 -362.189 -472.231C-329.834 -494.75 -295.361 -514.061 -259.464 -529.916C-223.532 -545.752 -186.197 -558.098 -148.079 -566.76C-109.961 -575.422 -71.0961 -580.419 -32.2026 -581.704C6.72555 -582.97 45.6618 -580.489 83.9265 -574.286C122.191 -568.082 159.805 -558.19 196.008 -544.817C232.281 -531.403 267.11 -514.528 300 -494.615C266.29 -513.108 230.898 -528.368 194.414 -540.056C157.95 -551.778 120.428 -559.908 82.5774 -564.349C44.6919 -568.809 6.47739 -569.58 -31.3465 -566.707C-69.2051 -563.854 -106.728 -557.343 -143.169 -547.344C-179.646 -537.365 -215.096 -523.884 -248.818 -507.235C-282.595 -490.571 -314.665 -470.704 -344.471 -447.96C-374.276 -425.215 -401.812 -399.682 -426.604 -371.78C-451.397 -343.878 -473.391 -313.622 -492.338 -281.606C-497.962 -272.105 -510.115 -269.376 -519.616 -275C-529.117 -280.624 -532.403 -292.452 -526.759 -301.987C-526.619 -302.23 -526.499 -302.438 -526.324 -302.66L-526.339 -302.715Z" fill="url(#paint45_linear_96_131)"/>
<path d="M-109.1 -742.312C-59.8341 -748.257 -10.0473 -749.522 39.3073 -746.04C88.6705 -742.508 137.552 -734.22 185.113 -721.333C232.673 -708.446 278.863 -690.951 322.888 -669.317C366.922 -647.634 408.743 -621.804 447.664 -592.264C486.585 -562.723 522.597 -529.523 555.079 -493.313C587.568 -457.054 616.478 -417.777 641.283 -376.152C666.088 -334.527 686.837 -290.562 703.121 -245.15C719.421 -199.639 731.246 -152.73 738.605 -105.236C729.228 -152.374 715.404 -198.524 697.281 -242.851C679.208 -287.186 656.845 -329.648 630.684 -369.46C604.515 -409.321 574.548 -446.533 541.406 -480.443C508.255 -514.402 471.871 -545.101 433.017 -571.962C394.153 -598.872 352.761 -621.986 309.723 -640.899C266.627 -659.854 221.836 -674.6 176.108 -684.865C130.381 -695.131 83.8074 -700.982 37.1694 -702.304C-9.46862 -703.625 -56.1131 -700.376 -101.993 -692.794C-115.61 -690.545 -127.988 -699.989 -130.236 -713.606C-132.485 -727.222 -123.8 -739.873 -110.134 -742.13C-109.79 -742.191 -109.494 -742.243 -109.141 -742.254L-109.1 -742.312Z" fill="url(#paint46_linear_96_131)"/>
<path d="M491.572 -764.508C541.446 -731.972 588.188 -694.732 630.871 -653.461C673.524 -612.138 712.066 -566.815 745.846 -518.283C779.625 -469.751 808.591 -418.041 832.374 -364.195C856.128 -310.297 874.647 -254.294 887.64 -197.118C900.632 -139.942 908.128 -81.6435 910.056 -23.3033C911.954 35.0889 908.233 93.4932 898.928 150.89C889.623 208.287 874.785 264.707 854.725 319.013C834.604 373.422 809.292 425.665 779.423 475C807.161 424.435 830.052 371.348 847.583 316.622C865.167 261.926 877.362 205.643 884.023 148.867C890.713 92.0384 891.869 34.7166 887.56 -22.0192C883.28 -78.8071 873.514 -135.091 858.516 -189.753C843.548 -244.468 823.326 -297.643 798.352 -348.227C773.356 -398.893 743.556 -446.997 709.439 -491.706C675.323 -536.414 637.023 -577.717 595.17 -614.906C553.317 -652.094 507.933 -685.087 459.909 -713.506C445.658 -721.942 441.564 -740.171 450 -754.423C458.435 -768.674 476.177 -773.604 490.481 -765.138C490.844 -764.928 491.156 -764.748 491.49 -764.486L491.572 -764.508Z" fill="url(#paint47_linear_96_131)"/>
<path d="M-336.959 -1006.39C-270.48 -1026.57 -202.145 -1040.41 -133.251 -1047.61C-64.334 -1054.74 5.07557 -1055.2 73.7814 -1048.99C142.487 -1042.79 210.424 -1029.9 276.382 -1010.77C342.365 -991.583 406.304 -966.137 467.147 -934.871C527.99 -903.605 585.712 -866.585 639.298 -824.558C692.908 -782.465 742.315 -735.341 786.634 -683.981C830.952 -632.622 870.249 -577.051 903.739 -518.398C937.277 -459.613 964.985 -397.813 986.677 -334.121C962.288 -396.831 932.009 -457.1 896.246 -513.809C860.55 -570.541 819.394 -623.648 773.647 -672.178C727.876 -720.774 677.513 -764.794 623.576 -803.49C569.614 -842.251 511.988 -875.731 451.888 -903.319C391.764 -930.973 329.076 -952.778 265.139 -968.392C201.113 -984.048 135.774 -993.49 70.2325 -996.527C4.69131 -999.563 -60.9438 -996.309 -125.566 -986.792C-190.189 -977.276 -253.709 -961.457 -315.122 -939.849C-333.349 -933.439 -352.711 -943.451 -359.122 -961.677C-365.532 -979.904 -356.633 -999.457 -338.34 -1005.89C-337.88 -1006.06 -337.485 -1006.2 -337.001 -1006.3L-336.959 -1006.39Z" fill="url(#paint48_linear_96_131)"/>
<path d="M-1200.83 -457.919C-1168.29 -534.135 -1128.55 -607.195 -1082.3 -675.667C-1035.98 -744.11 -983.175 -807.886 -924.824 -865.91C-866.473 -923.934 -802.603 -976.128 -734.553 -1021.74C-666.425 -1067.32 -594.148 -1106.23 -518.926 -1137.86C-443.704 -1169.48 -365.616 -1193.84 -286.126 -1210.58C-206.557 -1227.29 -125.613 -1236.31 -44.6999 -1237.43C36.2129 -1238.54 117.124 -1231.84 196.398 -1217.47C275.83 -1203.05 353.547 -1180.98 428.38 -1151.97C352.376 -1177.76 274.087 -1196.3 194.847 -1207.11C115.636 -1217.99 35.5515 -1221.1 -43.8714 -1216.51C-123.373 -1211.95 -202.213 -1199.68 -278.929 -1180.06C-355.724 -1160.47 -430.503 -1133.48 -501.794 -1099.72C-573.165 -1065.98 -641.155 -1025.42 -704.447 -978.967C-767.845 -932.466 -826.572 -879.999 -879.601 -822.437C-932.63 -764.875 -979.982 -702.403 -1020.84 -636.056C-1061.69 -569.708 -1095.94 -499.535 -1123.28 -426.849C-1131.4 -405.279 -1155.39 -395.263 -1176.97 -403.38C-1198.54 -411.498 -1209.58 -434.622 -1201.43 -456.271C-1201.23 -456.82 -1201.06 -457.291 -1200.78 -457.812L-1200.83 -457.919Z" fill="url(#paint49_linear_96_131)"/>
<path d="M287.848 -1340.03C374.839 -1319.76 459.83 -1291.25 541.166 -1254.97C622.487 -1218.61 700.066 -1174.5 772.578 -1123.42C845.09 -1072.34 912.447 -1014.31 973.595 -950.619C1034.73 -886.834 1089.56 -817.397 1137.21 -743.47C1184.86 -669.543 1225.33 -591.215 1257.98 -509.972C1290.61 -428.639 1315.33 -344.408 1331.66 -258.73C1347.99 -173.053 1356.02 -85.9144 1355.61 0.922694C1355.16 87.9371 1346.28 174.562 1329.49 259.425C1342.65 173.921 1347.68 87.349 1344.31 1.21623C1341.04 -84.9009 1329.35 -170.49 1309.61 -253.936C1289.89 -337.47 1262.11 -418.86 1226.93 -496.621C1191.76 -574.47 1149.12 -648.794 1099.94 -718.148C1050.77 -787.591 994.984 -852.169 933.832 -910.657C872.606 -969.248 805.922 -1021.77 734.897 -1067.28C663.872 -1112.8 588.697 -1151.37 510.625 -1182.31C432.553 -1213.26 351.656 -1236.48 269.384 -1251.9C244.968 -1256.48 229.845 -1280.07 234.425 -1304.49C239.004 -1328.91 261.483 -1344.96 285.987 -1340.36C286.607 -1340.25 287.139 -1340.16 287.744 -1339.96L287.848 -1340.03Z" fill="url(#paint50_linear_96_131)"/>
<path d="M-87.7992 -1600.19C16.354 -1603.61 120.74 -1597.15 223.353 -1580.83C325.975 -1564.4 426.719 -1538.12 523.857 -1502.45C620.995 -1466.79 714.422 -1421.74 802.564 -1368.42C890.715 -1315 973.477 -1253.31 1049.49 -1184.39C1125.51 -1115.46 1194.77 -1039.42 1256.1 -957.721C1317.43 -875.92 1370.72 -788.462 1414.99 -696.842C1459.27 -605.222 1494.63 -509.449 1520.38 -411.466C1546.15 -313.273 1562.3 -212.974 1569.01 -112.27C1558.02 -212.599 1537.54 -311.677 1507.74 -407.725C1478.05 -503.783 1439.04 -596.706 1391.59 -684.781C1344.14 -772.961 1288.26 -856.293 1225.14 -933.299C1162 -1010.41 1091.5 -1081.29 1015.14 -1144.6C938.759 -1208.01 856.396 -1263.93 769.821 -1311.38C683.133 -1358.92 592.128 -1397.97 498.345 -1427.81C404.562 -1457.66 308.201 -1478.42 210.875 -1489.72C113.55 -1501.02 15.3748 -1502.76 -81.9951 -1495.3C-110.892 -1493.09 -135.059 -1515.11 -137.271 -1544.01C-139.483 -1572.9 -118.998 -1597.78 -89.9958 -1600C-89.2636 -1600.06 -88.636 -1600.12 -87.8947 -1600.08L-87.7992 -1600.19Z" fill="url(#paint51_linear_96_131)"/>
<path d="M-638.998 -1721.87C-526.31 -1760.41 -410.063 -1788.22 -292.463 -1804.67C-174.818 -1821.01 -55.9299 -1825.95 62.1511 -1819.43C180.232 -1812.91 297.395 -1794.88 411.542 -1766.06C525.734 -1737.14 636.799 -1697.37 742.909 -1647.44C849.018 -1597.51 950.126 -1537.54 1044.45 -1468.74C1138.81 -1399.84 1226.28 -1322.06 1305.28 -1236.72C1384.28 -1151.38 1454.93 -1058.52 1515.81 -960.04C1576.79 -861.335 1627.96 -757.114 1668.93 -649.292C1623.39 -755.271 1567.91 -856.714 1503.25 -951.73C1438.7 -1046.79 1365.01 -1135.31 1283.73 -1215.72C1202.41 -1296.24 1113.49 -1368.64 1018.77 -1431.71C924.001 -1494.89 823.271 -1548.8 718.654 -1592.47C613.992 -1636.25 505.288 -1669.86 394.816 -1692.78C284.187 -1715.77 171.68 -1728.04 59.21 -1729.32C-53.2596 -1730.6 -165.514 -1721.1 -275.658 -1700.93C-385.803 -1680.76 -493.682 -1649.86 -597.605 -1609.17C-628.448 -1597.09 -662.219 -1613.09 -674.292 -1643.93C-686.365 -1674.77 -672.289 -1708.81 -641.334 -1720.92C-640.555 -1721.24 -639.888 -1721.51 -639.064 -1721.71L-638.998 -1721.87Z" fill="url(#paint52_linear_96_131)"/>
<path d="M-1907.98 -1162.97C-1829.35 -1283.49 -1739.35 -1396.45 -1639.61 -1499.61C-1539.75 -1602.68 -1430.22 -1695.83 -1312.93 -1777.46C-1195.65 -1859.1 -1070.68 -1929.09 -940.555 -1986.57C-810.302 -2043.98 -674.962 -2088.73 -536.785 -2120.13C-398.609 -2151.53 -257.722 -2169.64 -116.733 -2174.3C24.3811 -2178.89 165.525 -2169.9 304.235 -2147.41C442.944 -2124.92 579.293 -2089.06 710.531 -2040.59C842.02 -1991.96 968.273 -1930.79 1087.5 -1858.61C965.301 -1925.64 837.007 -1980.96 704.752 -2023.33C572.57 -2065.82 436.554 -2095.29 299.344 -2111.39C162.009 -2127.56 23.4815 -2130.35 -113.63 -2119.94C-250.867 -2109.6 -386.887 -2085.99 -518.988 -2049.75C-651.214 -2013.57 -779.72 -1964.7 -901.965 -1904.35C-1024.41 -1843.94 -1140.66 -1771.93 -1248.71 -1689.48C-1356.75 -1607.03 -1456.57 -1514.47 -1546.44 -1413.33C-1636.31 -1312.18 -1716.04 -1202.51 -1784.72 -1086.45C-1805.11 -1052.01 -1849.16 -1042.11 -1883.61 -1062.5C-1918.05 -1082.89 -1929.96 -1125.76 -1909.5 -1160.33C-1908.99 -1161.21 -1908.56 -1161.96 -1907.92 -1162.77L-1907.98 -1162.97Z" fill="url(#paint53_linear_96_131)"/>
<path d="M-770.191 -2332.47C-618.239 -2378.58 -462.044 -2410.23 -304.574 -2426.68C-147.049 -2442.98 11.6017 -2444.03 168.644 -2429.84C325.686 -2415.66 480.969 -2386.19 631.731 -2342.48C782.548 -2298.62 928.695 -2240.46 1067.76 -2168.99C1206.83 -2097.53 1338.77 -2012.91 1461.25 -1916.85C1583.79 -1820.63 1696.72 -1712.92 1798.02 -1595.53C1899.32 -1478.14 1989.14 -1351.12 2065.69 -1217.05C2142.35 -1082.69 2205.68 -941.43 2255.26 -795.848C2199.52 -939.186 2130.31 -1076.94 2048.56 -1206.56C1966.97 -1336.24 1872.9 -1457.62 1768.34 -1568.55C1663.72 -1679.63 1548.6 -1780.24 1425.32 -1868.69C1301.98 -1957.29 1170.26 -2033.81 1032.89 -2096.87C895.46 -2160.08 752.173 -2209.92 606.033 -2245.61C459.688 -2281.4 310.34 -2302.98 160.532 -2309.92C10.7234 -2316.86 -139.3 -2309.42 -287.008 -2287.67C-434.717 -2265.92 -579.906 -2229.76 -720.279 -2180.37C-761.94 -2165.72 -806.196 -2188.6 -820.849 -2230.26C-835.501 -2271.92 -815.16 -2316.62 -773.349 -2331.32C-772.296 -2331.71 -771.394 -2332.03 -770.287 -2332.27L-770.191 -2332.47Z" fill="url(#paint54_linear_96_131)"/>
</g>
<defs>
<filter id="filter0_f_96_131" x="-25" y="0" width="2050" height="1550" filterUnits="userSpaceOnUse" color-interpolation-filters="sRGB">
<feFlood flood-opacity="0" result="BackgroundImageFix"/>
<feBlend mode="normal" in="SourceGraphic" in2="BackgroundImageFix" result="shape"/>
<feGaussianBlur stdDeviation="12.5" result="effect1_foregroundBlur_96_131"/>
</filter>
<radialGradient id="paint0_radial_96_131" cx="0" cy="0" r="1" gradientUnits="userSpaceOnUse" gradientTransform="translate(-0.000244141 25) scale(3000)">
<stop stop-color="#09A1FC"/>
<stop offset="1" stop-color="#E1F5FE"/>
</radialGradient>
<radialGradient id="paint1_radial_96_131" cx="0" cy="0" r="1" gradientUnits="userSpaceOnUse" gradientTransform="translate(-0.000244141 25) scale(2000)">
<stop stop-color="#09A1FC"/>
<stop offset="1" stop-color="#E1F5FE"/>
</radialGradient>
<radialGradient id="paint2_radial_96_131" cx="0" cy="0" r="1" gradientUnits="userSpaceOnUse" gradientTransform="translate(-0.000244141 25) scale(1800)">
<stop stop-color="#09A1FC"/>
<stop offset="1" stop-color="#E1F5FE"/>
</radialGradient>
<radialGradient id="paint3_radial_96_131" cx="0" cy="0" r="1" gradientUnits="userSpaceOnUse" gradientTransform="translate(-0.000244141 25) scale(1700)">
<stop stop-color="#09A1FC"/>
<stop offset="1" stop-color="#E1F5FE"/>
</radialGradient>
<radialGradient id="paint4_radial_96_131" cx="0" cy="0" r="1" gradientUnits="userSpaceOnUse" gradientTransform="translate(-0.000244141 25) scale(1651)">
<stop stop-color="#09A1FC"/>
<stop offset="1" stop-color="#E1F5FE"/>
</radialGradient>
<radialGradient id="paint5_radial_96_131" cx="0" cy="0" r="1" gradientUnits="userSpaceOnUse" gradientTransform="translate(-0.000244141 25) scale(1450)">
<stop stop-color="#09A1FC"/>
<stop offset="1" stop-color="#E1F5FE"/>
</radialGradient>
<radialGradient id="paint6_radial_96_131" cx="0" cy="0" r="1" gradientUnits="userSpaceOnUse" gradientTransform="translate(-0.000244141 25) scale(1250)">
<stop stop-color="#09A1FC"/>
<stop offset="1" stop-color="#E1F5FE"/>
</radialGradient>
<radialGradient id="paint7_radial_96_131" cx="0" cy="0" r="1" gradientUnits="userSpaceOnUse" gradientTransform="translate(-0.000244141 25) scale(1175)">
<stop stop-color="#09A1FC"/>
<stop offset="1" stop-color="#E1F5FE"/>
</radialGradient>
<radialGradient id="paint8_radial_96_131" cx="0" cy="0" r="1" gradientUnits="userSpaceOnUse" gradientTransform="translate(-0.000244141 25) scale(900)">
<stop stop-color="#09A1FC"/>
<stop offset="1" stop-color="#E1F5FE"/>
</radialGradient>
<radialGradient id="paint9_radial_96_131" cx="0" cy="0" r="1" gradientUnits="userSpaceOnUse" gradientTransform="translate(-0.000244141 25) scale(750)">
<stop stop-color="#09A1FC"/>
<stop offset="1" stop-color="#E1F5FE"/>
</radialGradient>
<radialGradient id="paint10_radial_96_131" cx="0" cy="0" r="1" gradientUnits="userSpaceOnUse" gradientTransform="translate(-0.000244141 25) scale(500)">
<stop stop-color="#09A1FC"/>
<stop offset="1" stop-color="#E1F5FE"/>
</radialGradient>
<radialGradient id="paint11_radial_96_131" cx="0" cy="0" r="1" gradientUnits="userSpaceOnUse" gradientTransform="translate(-0.000244141 25) scale(380)">
<stop stop-color="#09A1FC"/>
<stop offset="1" stop-color="#E1F5FE"/>
</radialGradient>
<radialGradient id="paint12_radial_96_131" cx="0" cy="0" r="1" gradientUnits="userSpaceOnUse" gradientTransform="translate(-0.000244141 25) scale(250)">
<stop stop-color="#09A1FC"/>
<stop offset="1" stop-color="#E1F5FE"/>
</radialGradient>
<linearGradient id="paint13_linear_96_131" x1="-84.5725" y1="55.7818" x2="-20.9567" y2="230.565" gradientUnits="userSpaceOnUse">
<stop stop-color="#75CBFD"/>
<stop offset="1" stop-color="#E1F5FE"/>
</linearGradient>
<linearGradient id="paint14_linear_96_131" x1="-51.3031" y1="165.954" x2="240.002" y2="271.98" gradientUnits="userSpaceOnUse">
<stop stop-color="#75CBFD"/>
<stop offset="1" stop-color="#E1F5FE"/>
</linearGradient>
<linearGradient id="paint15_linear_96_131" x1="-143.633" y1="145.523" x2="105.447" y2="442.365" gradientUnits="userSpaceOnUse">
<stop stop-color="#75CBFD"/>
<stop offset="1" stop-color="#E1F5FE"/>
</linearGradient>
<linearGradient id="paint16_linear_96_131" x1="39.0707" y1="246.582" x2="497.006" y2="165.835" gradientUnits="userSpaceOnUse">
<stop stop-color="#75CBFD"/>
<stop offset="1" stop-color="#E1F5FE"/>
</linearGradient>
<linearGradient id="paint17_linear_96_131" x1="102.606" y1="306.908" x2="685.215" y2="94.8552" gradientUnits="userSpaceOnUse">
<stop stop-color="#75CBFD"/>
<stop offset="1" stop-color="#E1F5FE"/>
</linearGradient>
<linearGradient id="paint18_linear_96_131" x1="-187.5" y1="349.76" x2="483.67" y2="737.259" gradientUnits="userSpaceOnUse">
<stop stop-color="#75CBFD"/>
<stop offset="1" stop-color="#E1F5FE"/>
</linearGradient>
<linearGradient id="paint19_linear_96_131" x1="-422.862" y1="178.909" x2="-104.783" y2="1052.82" gradientUnits="userSpaceOnUse">
<stop stop-color="#75CBFD"/>
<stop offset="1" stop-color="#E1F5FE"/>
</linearGradient>
<linearGradient id="paint20_linear_96_131" x1="-179.561" y1="518.339" x2="840.006" y2="889.43" gradientUnits="userSpaceOnUse">
<stop stop-color="#75CBFD"/>
<stop offset="1" stop-color="#E1F5FE"/>
</linearGradient>
<linearGradient id="paint21_linear_96_131" x1="313.125" y1="567.348" x2="1433.98" y2="-79.7765" gradientUnits="userSpaceOnUse">
<stop stop-color="#75CBFD"/>
<stop offset="1" stop-color="#E1F5FE"/>
</linearGradient>
<linearGradient id="paint22_linear_96_131" x1="-517.08" y1="458.882" x2="379.609" y2="1527.51" gradientUnits="userSpaceOnUse">
<stop stop-color="#75CBFD"/>
<stop offset="1" stop-color="#E1F5FE"/>
</linearGradient>
<linearGradient id="paint23_linear_96_131" x1="-451.692" y1="670.082" x2="881.478" y2="1603.58" gradientUnits="userSpaceOnUse">
<stop stop-color="#75CBFD"/>
<stop offset="1" stop-color="#E1F5FE"/>
</linearGradient>
<linearGradient id="paint24_linear_96_131" x1="-278.115" y1="880.951" x2="1490.85" y2="1455.72" gradientUnits="userSpaceOnUse">
<stop stop-color="#75CBFD"/>
<stop offset="1" stop-color="#E1F5FE"/>
</linearGradient>
<linearGradient id="paint25_linear_96_131" x1="765.853" y1="667.627" x2="2093.95" y2="-915.136" gradientUnits="userSpaceOnUse">
<stop stop-color="#75CBFD"/>
<stop offset="1" stop-color="#E1F5FE"/>
</linearGradient>
<linearGradient id="paint26_linear_96_131" x1="371.947" y1="1046.92" x2="2483.91" y2="278.226" gradientUnits="userSpaceOnUse">
<stop stop-color="#75CBFD"/>
<stop offset="1" stop-color="#E1F5FE"/>
</linearGradient>
<linearGradient id="paint27_linear_96_131" x1="-410.424" y1="1152.63" x2="1920.01" y2="2000.84" gradientUnits="userSpaceOnUse">
<stop stop-color="#75CBFD"/>
<stop offset="1" stop-color="#E1F5FE"/>
</linearGradient>
<linearGradient id="paint28_linear_96_131" x1="-114.907" y1="-71.4181" x2="-314.171" y2="166.056" gradientUnits="userSpaceOnUse">
<stop stop-color="#75CBFD"/>
<stop offset="1" stop-color="#E1F5FE"/>
</linearGradient>
<linearGradient id="paint29_linear_96_131" x1="-64.1288" y1="-151.192" x2="-428.26" y2="-18.6596" gradientUnits="userSpaceOnUse">
<stop stop-color="#75CBFD"/>
<stop offset="1" stop-color="#E1F5FE"/>
</linearGradient>
<linearGradient id="paint30_linear_96_131" x1="-221.582" y1="-14.0709" x2="-302.328" y2="443.865" gradientUnits="userSpaceOnUse">
<stop stop-color="#75CBFD"/>
<stop offset="1" stop-color="#E1F5FE"/>
</linearGradient>
<linearGradient id="paint31_linear_96_131" x1="-300" y1="25" x2="-300" y2="645" gradientUnits="userSpaceOnUse">
<stop stop-color="#75CBFD"/>
<stop offset="1" stop-color="#E1F5FE"/>
</linearGradient>
<linearGradient id="paint32_linear_96_131" x1="-241.045" y1="-262.267" x2="-834.73" y2="235.894" gradientUnits="userSpaceOnUse">
<stop stop-color="#75CBFD"/>
<stop offset="1" stop-color="#E1F5FE"/>
</linearGradient>
<linearGradient id="paint33_linear_96_131" x1="-402.173" y1="-312.463" x2="-1099.6" y2="518.695" gradientUnits="userSpaceOnUse">
<stop stop-color="#75CBFD"/>
<stop offset="1" stop-color="#E1F5FE"/>
</linearGradient>
<linearGradient id="paint34_linear_96_131" x1="-616.736" y1="133.747" x2="-391.992" y2="1408.33" gradientUnits="userSpaceOnUse">
<stop stop-color="#75CBFD"/>
<stop offset="1" stop-color="#E1F5FE"/>
</linearGradient>
<linearGradient id="paint35_linear_96_131" x1="-230.864" y1="-609.293" x2="-1541.73" y2="-132.174" gradientUnits="userSpaceOnUse">
<stop stop-color="#75CBFD"/>
<stop offset="1" stop-color="#E1F5FE"/>
</linearGradient>
<linearGradient id="paint36_linear_96_131" x1="-451.692" y1="-620.082" x2="-1784.86" y2="313.413" gradientUnits="userSpaceOnUse">
<stop stop-color="#75CBFD"/>
<stop offset="1" stop-color="#E1F5FE"/>
</linearGradient>
<linearGradient id="paint37_linear_96_131" x1="-709.21" y1="-529.095" x2="-1854.34" y2="936.605" gradientUnits="userSpaceOnUse">
<stop stop-color="#75CBFD"/>
<stop offset="1" stop-color="#E1F5FE"/>
</linearGradient>
<linearGradient id="paint38_linear_96_131" x1="-865.809" y1="524.875" x2="167.266" y2="2314.21" gradientUnits="userSpaceOnUse">
<stop stop-color="#75CBFD"/>
<stop offset="1" stop-color="#E1F5FE"/>
</linearGradient>
<linearGradient id="paint39_linear_96_131" x1="-1087.5" y1="24.9999" x2="-1087.5" y2="2272.5" gradientUnits="userSpaceOnUse">
<stop stop-color="#75CBFD"/>
<stop offset="1" stop-color="#E1F5FE"/>
</linearGradient>
<linearGradient id="paint40_linear_96_131" x1="-919.253" y1="-746.345" x2="-2513.37" y2="1153.44" gradientUnits="userSpaceOnUse">
<stop stop-color="#75CBFD"/>
<stop offset="1" stop-color="#E1F5FE"/>
</linearGradient>
<linearGradient id="paint41_linear_96_131" x1="77.942" y1="70" x2="170.942" y2="-91.0807" gradientUnits="userSpaceOnUse">
<stop stop-color="#75CBFD"/>
<stop offset="1" stop-color="#E1F5FE"/>
</linearGradient>
<linearGradient id="paint42_linear_96_131" x1="140.954" y1="-26.303" x2="34.9273" y2="-317.608" gradientUnits="userSpaceOnUse">
<stop stop-color="#75CBFD"/>
<stop offset="1" stop-color="#E1F5FE"/>
</linearGradient>
<linearGradient id="paint43_linear_96_131" x1="184.651" y1="57.5591" x2="251.94" y2="-324.054" gradientUnits="userSpaceOnUse">
<stop stop-color="#75CBFD"/>
<stop offset="1" stop-color="#E1F5FE"/>
</linearGradient>
<linearGradient id="paint44_linear_96_131" x1="144.627" y1="-147.36" x2="-211.584" y2="-446.256" gradientUnits="userSpaceOnUse">
<stop stop-color="#75CBFD"/>
<stop offset="1" stop-color="#E1F5FE"/>
</linearGradient>
<linearGradient id="paint45_linear_96_131" x1="150" y1="-234.808" x2="-386.936" y2="-544.808" gradientUnits="userSpaceOnUse">
<stop stop-color="#75CBFD"/>
<stop offset="1" stop-color="#E1F5FE"/>
</linearGradient>
<linearGradient id="paint46_linear_96_131" x1="369.303" y1="-40.1181" x2="234.725" y2="-803.344" gradientUnits="userSpaceOnUse">
<stop stop-color="#75CBFD"/>
<stop offset="1" stop-color="#E1F5FE"/>
</linearGradient>
<linearGradient id="paint47_linear_96_131" x1="389.711" y1="250" x2="854.711" y2="-555.404" gradientUnits="userSpaceOnUse">
<stop stop-color="#75CBFD"/>
<stop offset="1" stop-color="#E1F5FE"/>
</linearGradient>
<linearGradient id="paint48_linear_96_131" x1="493.338" y1="-154.561" x2="122.246" y2="-1174.13" gradientUnits="userSpaceOnUse">
<stop stop-color="#75CBFD"/>
<stop offset="1" stop-color="#E1F5FE"/>
</linearGradient>
<linearGradient id="paint49_linear_96_131" x1="214.19" y1="-563.483" x2="-1002.01" y2="-1006.14" gradientUnits="userSpaceOnUse">
<stop stop-color="#75CBFD"/>
<stop offset="1" stop-color="#E1F5FE"/>
</linearGradient>
<linearGradient id="paint50_linear_96_131" x1="664.745" y1="142.213" x2="906.984" y2="-1231.59" gradientUnits="userSpaceOnUse">
<stop stop-color="#75CBFD"/>
<stop offset="1" stop-color="#E1F5FE"/>
</linearGradient>
<linearGradient id="paint51_linear_96_131" x1="784.503" y1="-43.6352" x2="642.657" y2="-1664.94" gradientUnits="userSpaceOnUse">
<stop stop-color="#75CBFD"/>
<stop offset="1" stop-color="#E1F5FE"/>
</linearGradient>
<linearGradient id="paint52_linear_96_131" x1="834.465" y1="-312.146" x2="137.697" y2="-2036.71" gradientUnits="userSpaceOnUse">
<stop stop-color="#75CBFD"/>
<stop offset="1" stop-color="#E1F5FE"/>
</linearGradient>
<linearGradient id="paint53_linear_96_131" x1="543.75" y1="-916.803" x2="-1402.64" y2="-2040.55" gradientUnits="userSpaceOnUse">
<stop stop-color="#75CBFD"/>
<stop offset="1" stop-color="#E1F5FE"/>
</linearGradient>
<linearGradient id="paint54_linear_96_131" x1="1127.63" y1="-385.424" x2="279.421" y2="-2715.86" gradientUnits="userSpaceOnUse">
<stop stop-color="#75CBFD"/>
<stop offset="1" stop-color="#E1F5FE"/>
</linearGradient>
<clipPath id="clip0_96_131">
<rect width="2000" height="1500" fill="white" transform="translate(0 25)"/>
</clipPath>
</defs>
</svg>
