<svg width="65" height="66" viewBox="0 0 65 66" fill="none" xmlns="http://www.w3.org/2000/svg">
<path d="M51.4583 38.6667C55.4938 34.7125 59.5833 29.9729 59.5833 23.7708C59.5833 19.8202 58.014 16.0314 55.2204 13.2379C52.4269 10.4444 48.6381 8.875 44.6875 8.875C39.9208 8.875 36.5625 10.2292 32.5 14.2917C28.4375 10.2292 25.0792 8.875 20.3125 8.875C16.3619 8.875 12.5731 10.4444 9.77955 13.2379C6.98604 16.0314 5.41666 19.8202 5.41666 23.7708C5.41666 30 9.47916 34.7396 13.5417 38.6667L32.5 57.625L51.4583 38.6667Z" stroke="white" stroke-width="6" stroke-linecap="round" stroke-linejoin="round"/>
<path d="M8.72083 33.25H25.7292L27.0833 30.5417L32.5 42.7292L37.9167 23.7708L41.9792 33.25H56.2521" stroke="#FF0000" stroke-width="5" stroke-linecap="round" stroke-linejoin="round"/>
</svg>
